<svg id="Layer_1" data-name="Layer 1" xmlns="http://www.w3.org/2000/svg" viewBox="0 0 50 50"><defs><style>.cls-1{fill:#fff;}</style></defs><title>Artboard 1</title><path class="cls-1" d="M49.43,9.84a20.06,20.06,0,0,1-5.76,1.58,10.06,10.06,0,0,0,4.41-5.55,20.1,20.1,0,0,1-6.37,2.43,10,10,0,0,0-17.08,9.14A28.46,28.46,0,0,1,4,7a10,10,0,0,0,3.1,13.38,10,10,0,0,1-4.54-1.25s0,.08,0,.13a10,10,0,0,0,8,9.83A10,10,0,0,1,6,29.24a10,10,0,0,0,9.37,7A20.11,20.11,0,0,1,3,40.49a20.1,20.1,0,0,1-2.39-.14,28.36,28.36,0,0,0,15.37,4.51c18.44,0,28.52-15.28,28.52-28.53q0-.65,0-1.3A20.35,20.35,0,0,0,49.43,9.84Z"/></svg>