<?xml version="1.0" encoding="UTF-8"?>
<svg width="72px" height="26px" viewBox="0 0 72 26" version="1.1" xmlns="http://www.w3.org/2000/svg" xmlns:xlink="http://www.w3.org/1999/xlink">
    <!-- Generator: Sketch 47.1 (45422) - http://www.bohemiancoding.com/sketch -->
    <title>Podia Wordmark Dark</title>
    <desc>Created with Sketch.</desc>
    <defs></defs>
    <g id="Page-2" stroke="none" stroke-width="1" fill="none" fill-rule="evenodd">
        <g id="Podia-Homepage-Copy-2" transform="translate(-43.000000, -77.000000)" fill="#28384E">
            <g id="Podia-Wordmark-Dark" transform="translate(43.500000, 76.482477)">
                <g id="Podia-Wordmark" transform="translate(0.000000, 0.453242)">
                    <path d="M23.192625,17.0835335 C21.560625,17.0835335 20.237825,15.7306698 20.237825,14.061988 C20.237825,12.3928971 21.560625,11.0400335 23.192225,11.0400335 C24.824225,11.0400335 26.147025,12.3928971 26.147025,14.061988 C26.147425,15.7306698 24.824225,17.0835335 23.192625,17.0835335 M23.192625,6.92826075 C19.340225,6.92826075 16.217825,10.1220335 16.217825,14.061988 C16.217825,18.0015335 19.340225,21.1953062 23.192625,21.1953062 C27.044625,21.1953062 30.167425,18.0015335 30.167425,14.061988 C30.167425,10.1220335 27.044625,6.92826075 23.192625,6.92826075" id="Fill-1"></path>
                    <path d="M7.265665,17.0835335 C5.633665,17.0835335 4.310865,15.7306698 4.310865,14.061988 C4.310865,12.3928971 5.633665,11.0400335 7.265265,11.0400335 C8.897265,11.0400335 10.220065,12.3928971 10.220065,14.0615789 C10.220065,15.7306698 8.897265,17.0835335 7.265665,17.0835335 M0.294065,13.9858971 L0.294065,13.9875335 C0.294865,13.9331244 0.299665,13.8807607 0.302065,13.8271698 C0.300465,13.8803517 0.294865,13.9323062 0.294065,13.9858971 M7.265665,6.92826075 C6.164865,6.92826075 5.127665,7.19621529 4.202065,7.66053348 L4.202065,7.65235166 C4.133665,7.68794257 4.059265,7.71289711 3.977265,7.71289711 C3.933665,7.71289711 3.894065,7.70021529 3.853665,7.68957893 C3.484865,7.59139711 2.307265,7.29766984 1.591265,7.11562439 C1.583265,7.11316984 1.576865,7.11398802 1.569265,7.11276075 C1.490465,7.09312439 1.409665,7.08003348 1.325265,7.08003348 C0.754065,7.08003348 0.290865,7.55376075 0.290865,8.13835166 L0.290865,14.0599426 L0.290865,14.0615789 L0.290865,14.061988 L0.290865,25.5177607 C0.290865,25.8241698 0.533265,26.072488 0.832865,26.072488 C0.868065,26.072488 3.805665,25.2506244 3.805665,25.2506244 C4.338065,25.1479426 4.710465,24.8509426 4.711265,24.5040335 C4.714065,23.6768517 4.712465,21.855988 4.711665,21.0738062 C4.712465,20.928988 4.827265,20.811988 4.969265,20.811988 C4.997265,20.811988 5.023665,20.8197607 5.048865,20.8283517 L5.048865,20.8213971 C5.746065,21.0603062 6.489665,21.1953062 7.265265,21.1953062 C11.117665,21.1953062 14.240465,18.0015335 14.240465,14.0615789 C14.240465,10.1220335 11.117665,6.92826075 7.265665,6.92826075" id="Fill-3"></path>
                    <path d="M51.972705,4.82119711 C53.170305,4.82119711 54.141505,3.82833348 54.141505,2.6031062 C54.141505,1.37828802 53.170305,0.385424386 51.972705,0.385424386 C50.775105,0.385424386 49.803905,1.37828802 49.803905,2.6031062 C49.803905,3.82833348 50.775105,4.82119711 51.972705,4.82119711" id="Fill-5"></path>
                    <path d="M53.849665,6.92838348 C53.834065,6.92838348 53.790865,6.9361562 53.736465,6.94720166 C53.735665,6.94720166 53.734865,6.94679257 53.734065,6.94720166 C53.722865,6.94924711 53.696865,6.95497439 53.673665,6.96029257 C53.666465,6.96192893 53.660465,6.96274711 53.653265,6.96438348 C53.646865,6.96601984 53.640465,6.9676562 53.633665,6.96929257 C53.378065,7.02656529 52.934465,7.13783802 52.462865,7.25933802 C51.342865,7.54283802 50.060465,7.91551984 50.060465,7.91551984 L50.060065,7.91756529 C49.777665,7.93720166 49.554065,8.17529257 49.554065,8.46901984 L49.554065,19.8560653 C49.554065,20.1624744 49.802865,20.3502471 50.096465,20.4107926 C51.005265,20.5981562 53.849665,21.1831562 53.849665,21.1831562 C54.148865,21.1831562 54.391665,20.9344289 54.391665,20.6284289 L54.391665,14.328838 L54.391665,7.74861075 L54.391665,7.48311075 C54.391665,7.17670166 54.149265,6.92879257 53.849665,6.92838348" id="Fill-7"></path>
                    <path d="M64.329345,17.0835335 C62.697745,17.0835335 61.374545,15.7306698 61.374545,14.061988 C61.374545,12.3928971 62.697745,11.0400335 64.329345,11.0400335 C65.960945,11.0400335 67.284145,12.3928971 67.284145,14.061988 C67.284145,15.7306698 65.961345,17.0835335 64.329345,17.0835335 M70.269345,7.08003348 C70.186545,7.08003348 70.106945,7.09271529 70.029745,7.11153348 C70.022545,7.11235166 70.017745,7.11153348 70.010145,7.11316984 C69.268145,7.30012439 68.141745,7.5828062 67.740945,7.68957893 C67.700545,7.70021529 67.661345,7.71289711 67.617345,7.71289711 C67.535345,7.71289711 67.460945,7.68794257 67.392545,7.65235166 L67.392545,7.66053348 C66.466945,7.19621529 65.430145,6.92826075 64.329345,6.92826075 C60.477345,6.92826075 57.354545,10.1220335 57.354545,14.061988 C57.354545,18.0015335 60.477345,21.1953062 64.329345,21.1953062 C65.430145,21.1953062 66.466945,20.9273517 67.392545,20.4630335 L67.392545,20.4712153 C67.460945,20.4356244 67.535345,20.4106698 67.617345,20.4106698 C67.661345,20.4106698 67.700545,20.4233517 67.740945,20.433988 C68.112145,20.532988 69.328945,20.8528971 70.047345,21.0353517 C70.050545,21.0361698 70.052545,21.0361698 70.055345,21.036988 C70.061345,21.0382153 70.067345,21.0386244 70.073345,21.0398517 C70.105745,21.0463971 70.134145,21.0492607 70.158945,21.0484426 C70.195745,21.0529426 70.231345,21.0598971 70.269345,21.0598971 C70.840545,21.0598971 71.304145,20.5861698 71.304145,20.0015789 L71.304145,8.13835166 C71.304145,7.55376075 70.840545,7.08003348 70.269345,7.08003348" id="Fill-9"></path>
                    <path d="M39.119585,17.0835335 C37.487585,17.0835335 36.164785,15.7306698 36.164785,14.061988 C36.164785,12.3933062 37.487585,11.0404426 39.119185,11.0404426 C40.751185,11.0404426 42.073985,12.3928971 42.073985,14.061988 C42.073985,15.7306698 40.751185,17.0835335 39.119585,17.0835335 L39.119585,17.0835335 Z M46.090785,14.1376698 L46.090785,14.1364426 C46.089985,14.1883971 46.085585,14.2391244 46.082785,14.2902607 C46.084785,14.2391244 46.089985,14.1892153 46.090785,14.1376698 L46.090785,14.1376698 Z M46.094385,4.08139711 L46.094385,4.08139711 L46.094385,3.06889711 C46.094385,3.06807893 46.094385,3.06766984 46.094385,3.06685166 L46.094385,2.6058062 C46.094385,2.29939711 45.842385,1.97621529 45.551985,2.05107893 C45.397985,2.09076075 42.579185,2.87335166 42.579185,2.87335166 C42.479985,2.90198802 42.393585,2.93553348 42.312385,2.97112439 C42.027585,3.07503348 41.817985,3.26976075 41.727185,3.50744257 C41.720385,3.5238062 41.716385,3.53976075 41.711185,3.55571529 C41.702785,3.58271529 41.693985,3.60889711 41.688385,3.63671529 C41.678785,3.68416984 41.673585,3.73162439 41.673585,3.77866984 C41.670785,4.60585166 41.672385,6.26757893 41.673185,7.04935166 C41.673185,7.05548802 41.669985,7.06039711 41.669585,7.06612439 C41.667585,7.09598802 41.663185,7.12544257 41.652385,7.15162439 C41.647585,7.16307893 41.638385,7.17166984 41.631985,7.1823062 C41.621585,7.20071529 41.611985,7.21994257 41.597185,7.23466984 C41.550785,7.28253348 41.486785,7.31157893 41.415585,7.31157893 C41.387585,7.31157893 41.361185,7.3038062 41.335985,7.29521529 L41.335985,7.30216984 C40.638785,7.06326075 39.895185,6.92826075 39.119585,6.92826075 C35.267185,6.92826075 32.144785,10.1220335 32.144785,14.061988 C32.144785,18.0015335 35.267185,21.1953062 39.119185,21.1953062 C40.219985,21.1953062 41.257185,20.9355335 42.182785,20.4712153 C42.251185,20.4356244 42.325585,20.4106698 42.407585,20.4106698 C42.451185,20.4106698 42.490785,20.4233517 42.531185,20.4343971 C42.634785,20.4618062 42.781185,20.5006698 42.950385,20.5452607 C43.461185,20.6806698 44.233585,20.8843971 44.753585,21.0169426 C44.771185,21.0214426 44.780785,21.0185789 44.797185,21.0214426 C44.881185,21.0443517 44.967985,21.0598971 45.059585,21.0598971 C45.630785,21.0598971 46.094385,20.5861698 46.094385,20.0015789 L46.094385,20.0015789 L46.094385,14.061988 C46.094385,14.0623971 46.094385,14.0632153 46.094385,14.0636244 L46.094385,4.0818062 L46.094385,4.08139711 Z" id="Fill-11"></path>
                </g>
            </g>
        </g>
    </g>
</svg>